<?xml version="1.0" standalone="no"?><!DOCTYPE svg PUBLIC "-//W3C//DTD SVG 1.1//EN" "http://www.w3.org/Graphics/SVG/1.1/DTD/svg11.dtd"><svg t="1681616011678" class="icon" viewBox="0 0 1024 1024" version="1.1" xmlns="http://www.w3.org/2000/svg" p-id="13876" width="16" height="16" xmlns:xlink="http://www.w3.org/1999/xlink"><path d="M941.592381 283.306667h-54.613333V228.693333h55.100952z m-831.878095 146.285714a27.306667 27.306667 0 1 1 27.306666-27.306667 27.306667 27.306667 0 0 1-27.306666 27.306667zM804.571429 146.285714v219.428572h63.878095v157.500952h-315.489524V146.285714h68.754286L512 0 402.285714 146.285714h68.754286v502.735238H155.550476v-146.285714A109.714286 109.714286 0 0 0 213.089524 438.857143 109.714286 109.714286 0 1 0 0 402.285714a109.714286 109.714286 0 0 0 73.142857 103.375238v143.36A82.407619 82.407619 0 0 0 155.550476 731.428571h315.489524v80.944762a109.714286 109.714286 0 1 0 82.407619 0v-206.750476h315.489524a82.407619 82.407619 0 0 0 82.407619-82.407619V365.714286H1024V146.285714z" fill="#bfbfbf" p-id="13877"></path></svg>