<?xml version="1.0" standalone="no"?><!DOCTYPE svg PUBLIC "-//W3C//DTD SVG 1.1//EN" "http://www.w3.org/Graphics/SVG/1.1/DTD/svg11.dtd"><svg t="1681739388337" class="icon" viewBox="0 0 1024 1024" version="1.1" xmlns="http://www.w3.org/2000/svg" p-id="3939" xmlns:xlink="http://www.w3.org/1999/xlink" width="16" height="16"><path d="M563.626667 176.426667a46.933333 46.933333 0 1 0-46.933334 46.933333 46.72 46.72 0 0 0 46.933334-46.933333zM174.08 706.773333a46.933333 46.933333 0 1 0 46.933333 46.933334 46.72 46.72 0 0 0-46.933333-46.933334z" fill="#bfbfbf" p-id="3940" data-spm-anchor-id="a313x.7781069.0.i5" class=""></path><path d="M938.666667 656a413.44 413.44 0 0 0 10.88-94.72 419.2 419.2 0 0 0-209.92-362.666667 23.466667 23.466667 0 0 0-23.466667 40.746667A369.92 369.92 0 0 1 896 630.4a130.346667 130.346667 0 0 0-145.066667 38.4l-103.04-60.373333a141.866667 141.866667 0 0 0-106.666666-185.813334v-116.906666A131.413333 131.413333 0 1 0 385.706667 170.666667 418.773333 418.773333 0 0 0 113.066667 554.666667a23.466667 23.466667 0 0 0 23.04 23.893333A23.466667 23.466667 0 0 0 160 554.666667a371.626667 371.626667 0 0 1 231.893333-337.066667 132.266667 132.266667 0 0 0 101.333334 88.106667v117.12a140.16 140.16 0 0 0-113.92 138.88 142.72 142.72 0 0 0 8.106666 46.933333l-110.293333 64a131.413333 131.413333 0 1 0-32.853333 192 416.64 416.64 0 0 0 482.133333 65.706667 23.253333 23.253333 0 0 0 9.813333-31.573334 23.68 23.68 0 0 0-32.213333-9.813333 371.84 371.84 0 0 1-173.653333 42.666667A366.933333 366.933333 0 0 1 278.826667 832a130.56 130.56 0 0 0 21.333333-118.826667l110.293333-64a135.253333 135.253333 0 0 0 214.826667 0l101.973333 59.52a128 128 0 0 0-7.893333 44.373334A131.413333 131.413333 0 1 0 938.666667 656zM89.6 753.706667a85.333333 85.333333 0 1 1 85.333333 85.333333 85.333333 85.333333 0 0 1-85.333333-85.333333zM432.213333 176.426667a85.333333 85.333333 0 1 1 85.333334 85.333333 85.333333 85.333333 0 0 1-85.333334-85.333333z m86.826667 341.333333A48.64 48.64 0 0 1 567.04 469.333333a49.066667 49.066667 0 1 1-48 49.066667z m330.88 320a85.333333 85.333333 0 1 1 85.333333-85.333333 85.333333 85.333333 0 0 1-85.333333 85.76z" fill="#bfbfbf" p-id="3941" data-spm-anchor-id="a313x.7781069.0.i3" class=""></path><path d="M849.92 706.773333a46.933333 46.933333 0 1 0 46.933333 46.933334 46.72 46.72 0 0 0-46.933333-46.933334z" fill="#bfbfbf" p-id="3942" data-spm-anchor-id="a313x.7781069.0.i6" class=""></path></svg>