<?xml version="1.0" standalone="no"?><!DOCTYPE svg PUBLIC "-//W3C//DTD SVG 1.1//EN" "http://www.w3.org/Graphics/SVG/1.1/DTD/svg11.dtd"><svg t="1681739609423" class="icon" viewBox="0 0 1024 1024" version="1.1" xmlns="http://www.w3.org/2000/svg" p-id="4397" xmlns:xlink="http://www.w3.org/1999/xlink" width="16" height="16"><path d="M170.666667 128a42.666667 42.666667 0 0 1 42.666666-42.666667h597.333334a42.666667 42.666667 0 0 1 42.666666 42.666667v256a42.666667 42.666667 0 0 1-42.666666 42.666667H213.333333a42.666667 42.666667 0 0 1-42.666666-42.666667V128z m85.333333 42.666667v170.666666h512V170.666667H256z" fill="#bfbfbf" p-id="4398" data-spm-anchor-id="a313x.7781069.0.i14" class=""></path><path d="M277.333333 512v-128h85.333334v85.333333h341.333333a42.666667 42.666667 0 0 1 42.666667 42.666667v128h-85.333334v-85.333333H320a42.666667 42.666667 0 0 1-42.666667-42.666667z" fill="#bfbfbf" p-id="4399" data-spm-anchor-id="a313x.7781069.0.i13" class=""></path><path d="M512 213.333333h170.666667v85.333334h-170.666667v-85.333334z" fill="#bfbfbf" p-id="4400" data-spm-anchor-id="a313x.7781069.0.i16" class=""></path><path d="M170.666667 640a42.666667 42.666667 0 0 1 42.666666-42.666667h597.333334a42.666667 42.666667 0 0 1 42.666666 42.666667v256a42.666667 42.666667 0 0 1-42.666666 42.666667H213.333333a42.666667 42.666667 0 0 1-42.666666-42.666667V640z m85.333333 42.666667v170.666666h512v-170.666666H256z" fill="#bfbfbf" p-id="4401" data-spm-anchor-id="a313x.7781069.0.i12" class=""></path><path d="M512 725.333333h170.666667v85.333334h-170.666667v-85.333334z" fill="#bfbfbf" p-id="4402" data-spm-anchor-id="a313x.7781069.0.i17" class=""></path></svg>