<?xml version="1.0" standalone="no"?><!DOCTYPE svg PUBLIC "-//W3C//DTD SVG 1.1//EN" "http://www.w3.org/Graphics/SVG/1.1/DTD/svg11.dtd"><svg t="1681739732361" class="icon" viewBox="0 0 1024 1024" version="1.1" xmlns="http://www.w3.org/2000/svg" p-id="4030" xmlns:xlink="http://www.w3.org/1999/xlink" width="16" height="16"><path d="M896 554.666667H128v-85.333334h768v85.333334z" fill="#bfbfbf" p-id="4031" data-spm-anchor-id="a313x.7781069.0.i2" class=""></path><path d="M469.333333 512v-128h85.333334v128h-85.333334zM256 640v-128h85.333333v128h-85.333333zM682.666667 640v-128h85.333333v128h-85.333333z" fill="#bfbfbf" p-id="4032" data-spm-anchor-id="a313x.7781069.0.i5" class=""></path><path d="M128 640a42.666667 42.666667 0 0 1 42.666667-42.666667h256a42.666667 42.666667 0 0 1 42.666666 42.666667v213.333333a42.666667 42.666667 0 0 1-42.666666 42.666667H170.666667a42.666667 42.666667 0 0 1-42.666667-42.666667V640z m85.333333 42.666667v128h170.666667v-128h-170.666667z" fill="#bfbfbf" p-id="4033" data-spm-anchor-id="a313x.7781069.0.i3" class=""></path><path d="M341.333333 170.666667a42.666667 42.666667 0 0 1 42.666667-42.666667h256a42.666667 42.666667 0 0 1 42.666667 42.666667v213.333333a42.666667 42.666667 0 0 1-42.666667 42.666667H384a42.666667 42.666667 0 0 1-42.666667-42.666667V170.666667z m85.333334 42.666666v128h170.666666v-128h-170.666666z" fill="#bfbfbf" p-id="4034" data-spm-anchor-id="a313x.7781069.0.i1" class=""></path><path d="M554.666667 640a42.666667 42.666667 0 0 1 42.666666-42.666667h256a42.666667 42.666667 0 0 1 42.666667 42.666667v213.333333a42.666667 42.666667 0 0 1-42.666667 42.666667H597.333333a42.666667 42.666667 0 0 1-42.666666-42.666667V640z m85.333333 42.666667v128h170.666667v-128h-170.666667z" fill="#bfbfbf" p-id="4035" data-spm-anchor-id="a313x.7781069.0.i4" class=""></path></svg>