<?xml version="1.0" standalone="no"?><!DOCTYPE svg PUBLIC "-//W3C//DTD SVG 1.1//EN" "http://www.w3.org/Graphics/SVG/1.1/DTD/svg11.dtd"><svg t="1681740223003" class="icon" viewBox="0 0 1024 1024" version="1.1" xmlns="http://www.w3.org/2000/svg" p-id="9264" xmlns:xlink="http://www.w3.org/1999/xlink" width="16" height="16"><path d="M873.813333 232.106667l-47.786666-47.786667-95.573334 95.573333 47.786667 47.786667 95.573333-95.573333zM170.666667 512H34.133333v68.266667h136.533334v-68.266667zM546.133333 68.266667h-68.266666v136.533333h68.266666V68.266667zM293.546667 279.893333L197.973333 184.32 150.186667 232.106667l95.573333 95.573333 47.786667-47.786667z m283.306666 180.906667l-58.026666-34.133333-126.293334 211.626666 136.533334 34.133334-78.506667 129.706666 58.026667 34.133334 126.293333-211.626667-136.533333-34.133333 78.506666-129.706667zM853.333333 512v68.266667h136.533334v-68.266667h-136.533334z m-68.266666 34.133333c0-150.186667-122.88-273.066667-273.066667-273.066666s-273.066667 122.88-273.066667 273.066666v341.333334H136.533333v68.266666h750.933334v-68.266666h-102.4V546.133333z m-68.266667 341.333334H307.2V546.133333c0-112.64 92.16-204.8 204.8-204.8s204.8 92.16 204.8 204.8v341.333334z" p-id="9265" data-spm-anchor-id="a313x.7781069.0.i31" class="selected" fill="#bfbfbf"></path></svg>