<?xml version="1.0" standalone="no"?><!DOCTYPE svg PUBLIC "-//W3C//DTD SVG 1.1//EN" "http://www.w3.org/Graphics/SVG/1.1/DTD/svg11.dtd"><svg t="1681740056948" class="icon" viewBox="0 0 1024 1024" version="1.1" xmlns="http://www.w3.org/2000/svg" p-id="8499" xmlns:xlink="http://www.w3.org/1999/xlink" width="16" height="16"><path d="M298.666667 640h298.666666v85.333333H298.666667v-85.333333z m0-170.666667h426.666666v85.333334H298.666667v-85.333334z m0-170.666666h426.666666v85.333333H298.666667V298.666667z m512-170.666667h-178.346667C614.4 78.506667 567.466667 42.666667 512 42.666667c-55.466667 0-102.4 35.84-120.32 85.333333H213.333333c-5.973333 0-11.52 0.426667-17.066666 1.706667a85.674667 85.674667 0 0 0-61.44 50.773333c-4.266667 9.813333-6.826667 20.906667-6.826667 32.853333v597.333334c0 11.52 2.56 23.04 6.826667 33.28s10.666667 19.2 18.346666 27.306666c11.52 11.52 26.453333 20.053333 43.093334 23.466667 5.546667 0.853333 11.093333 1.28 17.066666 1.28h597.333334c46.933333 0 85.333333-38.4 85.333333-85.333333V213.333333c0-46.933333-38.4-85.333333-85.333333-85.333333z m-298.666667-10.666667c17.493333 0 32 14.506667 32 32s-14.506667 32-32 32-32-14.506667-32-32 14.506667-32 32-32zM810.666667 810.666667H213.333333V213.333333h597.333334v597.333334z" fill="#bfbfbf" p-id="8500" data-spm-anchor-id="a313x.7781069.0.i24" class="selected"></path></svg>