<?xml version="1.0" standalone="no"?><!DOCTYPE svg PUBLIC "-//W3C//DTD SVG 1.1//EN" "http://www.w3.org/Graphics/SVG/1.1/DTD/svg11.dtd"><svg t="1681740334155" class="icon" viewBox="0 0 1024 1024" version="1.1" xmlns="http://www.w3.org/2000/svg" p-id="9666" xmlns:xlink="http://www.w3.org/1999/xlink" width="16" height="16"><path d="M767.295965 796.635032H256.768038a51.266563 51.266563 0 0 1-51.20256-51.20256v-418.580929a51.20256 51.20256 0 0 1 51.20256-51.202561h102.008301v61.289465h61.289464v-61.276664h183.893995v61.289465h61.315066v-61.276664h102.021101a51.20256 51.20256 0 0 1 51.20256 51.20256v418.580929a51.266563 51.266563 0 0 1-51.20256 51.176959zM307.228161 620.690235v64.0032h294.414721v-64.0032z m0-102.405121v64.0032h409.620481v-64.0032z m0-102.40512v64.0032h332.816641v-64.0032z" fill="#bfbfbf" p-id="9667" data-spm-anchor-id="a313x.7781069.0.i35" class="selected"></path><path d="M358.789139 214.333917h61.289465v61.289464h-61.289465z" fill="#bfbfbf" p-id="9668" data-spm-anchor-id="a313x.7781069.0.i37" class="selected"></path><path d="M603.972599 214.333917h61.289464v61.289464h-61.289464z" fill="#bfbfbf" p-id="9669" data-spm-anchor-id="a313x.7781069.0.i36" class="selected"></path></svg>