<?xml version="1.0" standalone="no"?><!DOCTYPE svg PUBLIC "-//W3C//DTD SVG 1.1//EN" "http://www.w3.org/Graphics/SVG/1.1/DTD/svg11.dtd"><svg t="1681740305447" class="icon" viewBox="0 0 1024 1024" version="1.1" xmlns="http://www.w3.org/2000/svg" p-id="9463" xmlns:xlink="http://www.w3.org/1999/xlink" width="16" height="16"><path d="M278.799585 491.305947H628.848581v50.261824l116.667946 66.360963V99.823686A87.472735 87.472735 0 0 0 658.021212 12.305793H132.981588a87.495314 87.495314 0 0 0-87.517894 87.517893v663.248352a87.495314 87.495314 0 0 0 87.517894 87.495314H569.013076v-119.761328H278.799585v-59.858085H569.013076V551.164032H278.799585v-59.858085z m0-359.283985H628.848581v59.925823H278.799585V132.021962z m0 179.641992H628.848581v59.903244H278.799585v-59.903244zM191.281692 730.806024c-16.099138 0-29.127472-13.389606-29.127473-29.962911 0-16.482988 13.028335-29.895173 29.127473-29.895174 16.121717 0 29.195211 13.412185 29.19521 29.895174 0 16.573306-13.073493 29.962912-29.19521 29.962911z m0-179.641992c-16.099138 0-29.127472-13.367026-29.127473-29.917753 0-16.528147 13.028335-29.962912 29.127473-29.962911 16.121717 0 29.195211 13.434764 29.19521 29.962911 0 16.550727-13.073493 29.917753-29.19521 29.917753z m0-179.574254c-16.099138 0-29.127472-13.434764-29.127473-29.962912s13.028335-29.962912 29.127473-29.962912c16.121717 0 29.195211 13.412185 29.19521 29.962912 0 16.528147-13.073493 29.962912-29.19521 29.962912z m0-179.641993c-16.099138 0-29.127472-13.412185-29.127473-29.962911s13.028335-29.962912 29.127473-29.962912c16.121717 0 29.195211 13.412185 29.19521 29.962912s-13.073493 29.962912-29.19521 29.962911z m429.099601 407.220128V1023.977421l141.256951-181.561245 216.898062-30.843509-358.155013-212.404754z" fill="#bfbfbf" p-id="9464" data-spm-anchor-id="a313x.7781069.0.i33" class="selected"></path></svg>